<svg width="10" height="10" viewBox="0 0 10 10" fill="none" xmlns="http://www.w3.org/2000/svg">
<path fill-rule="evenodd" clip-rule="evenodd" d="M9.30701 0.693284C9.69753 1.08381 9.69753 1.71697 9.30701 2.1075L2.10701 9.3075C1.71648 9.69802 1.08332 9.69802 0.692796 9.3075C0.302271 8.91697 0.302271 8.28381 0.692796 7.89328L7.8928 0.693284C8.28332 0.30276 8.91649 0.30276 9.30701 0.693284Z" fill="#C3B9B5"/>
<path fill-rule="evenodd" clip-rule="evenodd" d="M0.692796 0.693284C1.08332 0.30276 1.71648 0.30276 2.10701 0.693284L9.30701 7.89328C9.69753 8.28381 9.69753 8.91697 9.30701 9.3075C8.91649 9.69802 8.28332 9.69802 7.8928 9.3075L0.692796 2.1075C0.302271 1.71697 0.302271 1.08381 0.692796 0.693284Z" fill="#C3B9B5"/>
</svg>
