<svg width="69" height="71" viewBox="0 0 69 71" fill="none" xmlns="http://www.w3.org/2000/svg">
<path fill-rule="evenodd" clip-rule="evenodd" d="M64.7216 22.934L63.0726 22.9533L63.4252 4.78703C63.4758 2.17609 61.3873 0.0654409 58.7822 0.0960552L27.5427 0.46318C24.9387 0.493782 22.7672 2.6555 22.7165 5.26544L22.4636 18.2991C16.0931 21.9447 9.52162 25.752 9.50744 25.7611C5.95113 27.2585 0.690876 32.0167 0.475579 43.1092C0.456352 44.0999 0.503604 45.0135 0.577461 45.8958C0.60144 46.1541 0.628614 46.4024 0.658769 46.6517C0.737179 47.2993 0.839134 47.9187 0.963694 48.5066C0.981978 48.5921 0.99841 48.6791 1.01478 48.7658C1.03862 48.892 1.06233 49.0175 1.09144 49.1367C1.2612 49.8163 1.46079 50.4535 1.68698 51.0593C1.78883 51.3274 1.89906 51.5738 2.01079 51.8235L2.01081 51.8236L2.05131 51.9142C2.18553 52.2103 2.32085 52.5014 2.46654 52.7734C2.63514 53.1012 2.80398 53.417 2.99012 53.7165C3.01283 53.752 3.03661 53.7858 3.06049 53.8199L3.06056 53.8199C3.0836 53.8528 3.10674 53.8857 3.12913 53.9204C7.55118 60.7722 15.9557 60.7045 15.9557 60.7045L21.6418 60.6377L21.5371 66.0311C21.4865 68.639 23.5751 70.7496 26.1791 70.719L57.4176 70.3519C60.0226 70.3213 62.1941 68.1596 62.2447 65.5527L62.3724 58.9742L63.0944 58.9657L63.0945 58.9617L64.0155 58.9508C66.0866 58.9265 67.7982 57.2273 67.8345 55.1508L67.8464 54.7417C67.8827 52.6682 66.2402 51.0135 64.1721 51.0378L63.2481 51.0486L57.189 51.1198L56.255 51.1308C54.187 51.1551 52.4844 52.8532 52.4441 54.9257L52.4361 55.3418C52.3959 57.4093 54.0372 59.0751 56.1043 59.0508L59.0783 59.0159L59.029 61.5566L24.9085 61.9576L25.57 27.876C27.3052 26.7659 28.9125 25.6985 29.8312 24.985C30.6479 24.3517 31.4569 23.7407 32.2393 23.1498L32.2395 23.1497L32.2395 23.1497C35.916 20.3734 39.0044 18.0411 39.5311 15.9182C40.3628 12.5773 37.8663 9.79986 33.3965 12.157C31.9884 12.8993 29.0964 14.5242 25.7927 16.4025L25.9557 8.00212L60.0761 7.60615L59.7776 22.9901L57.7345 23.0141L57.7344 23.0181L56.8054 23.029C54.7364 23.0533 53.0248 24.7515 52.9845 26.83L52.9766 27.2371C52.9362 29.3147 54.5828 30.9694 56.6468 30.9451L57.5758 30.9342L63.6349 30.863L64.5659 30.8521C66.6319 30.8278 68.3395 29.1296 68.3798 27.0561L68.3879 26.638C68.432 24.5735 66.7906 22.9097 64.7216 22.934ZM42.0359 63.3214C43.3479 63.3059 44.3853 64.3553 44.3597 65.6679C44.3341 66.9835 43.2545 68.0539 41.9435 68.0694C40.6364 68.0848 39.6011 67.0364 39.6267 65.7238C39.6541 64.4152 40.7339 63.3368 42.0359 63.3214ZM37.9736 4.96451L47.9712 4.81504C48.2853 4.81034 48.5471 4.54884 48.5543 4.23278C48.5616 3.90968 48.3113 3.65784 47.9972 3.66254L37.9997 3.81201C37.6856 3.8167 37.4198 4.07726 37.4125 4.39936C37.4053 4.71642 37.6596 4.9692 37.9736 4.96451Z" fill="#FFC59E"/>
</svg>
